#!OML:ASF F:\VICON\USERDATA\INSTALL\Justin_Nancy\Justin_Nancy.ASF
:FULLY-SPECIFIED
:DEGREES
114
root -2.19486 15.5971 8.85338 -17.9806 62.926 -27.1035
lowerback 12.0312 -1.89928 -0.214482
upperback 1.46708 -2.18551 4.90857
thorax -5.00365 -0.995175 5.6527
lowerneck -14.5794 -1.46618 -6.07841
upperneck 17.0527 -1.86392 6.67639
head 7.77995 -0.613887 3.01985
rclavicle -1.16289e-014 3.10104e-014
rhumerus -55.4466 14.5655 -79.5962
rradius 89.5454
rwrist -11.2386
rhand -11.9607 27.4149
rfingers 7.12502
rthumb 14.0949 -2.08706
lclavicle -1.16289e-014 3.10104e-014
lhumerus -33.5661 -11.8346 97.2566
lradius 110.041
lwrist 20.3993
lhand -25.4139 7.82241
lfingers 7.12502
lthumb 1.11184 37.7993
rfemur -21.9247 3.24772 5.68106
rtibia 69.797
rfoot -10.536 -13.3316
rtoes -9.40245
lfemur -16.2084 16.0589 -34.5081
ltibia 48.7023
lfoot -24.2778 3.41067
ltoes 9.43489
115
root -1.95592 15.5757 9.01907 -14.7906 63.7652 -24.0916
lowerback 12.0053 -2.22409 -1.1908
upperback 1.17531 -2.79043 4.35268
thorax -5.21783 -1.2798 5.72041
lowerneck -14.417 -1.21157 -5.51365
upperneck 17.0209 -1.56952 6.26708
head 7.71269 -0.478867 2.81953
rclavicle -1.51076e-014 -1.03368e-014
rhumerus -56.1964 14.8672 -78.9727
rradius 89.8982
rwrist -12.0176
rhand -12.5164 28.0078
rfingers 7.12502
rthumb 13.5594 -1.53071
lclavicle -1.51076e-014 -1.03368e-014
lhumerus -32.8515 -11.4506 97.2801
lradius 111.676
lwrist 22.8943
lhand -25.8445 7.34621
lfingers 7.12502
lthumb 0.695906 37.3248
rfemur -24.7637 1.88998 3.20643
rtibia 69.4531
rfoot -11.5441 -11.9637
rtoes -11.2443
lfemur -14.8405 15.1049 -35.8131
ltibia 47.4857
lfoot -24.6831 3.53754
ltoes 9.71385
116
root -1.70121 15.5704 9.16898 -12.5233 64.1015 -22.06
lowerback 12.0034 -2.63208 -1.48321
upperback 0.905255 -3.39685 4.02325
thorax -5.44106 -1.57133 5.64122
lowerneck -14.2054 -0.922791 -5.40641
upperneck 16.9432 -1.14373 5.95138
head 7.61977 -0.303096 2.73991
rclavicle 9.24349e-015 -2.62396e-014
rhumerus -56.7308 15.5344 -78.443
rradius 90.5127
rwrist -13.4566
rhand -11.8591 28.2397
rfingers 7.12502
rthumb 14.1928 -1.25544
lclavicle 9.24349e-015 -2.62396e-014
lhumerus -32.4293 -11.0129 97.2385
lradius 113.431
lwrist 25.8107
lhand -26.0541 7.44739
lfingers 7.12502
lthumb 0.49347 37.4266
rfemur -27.474 0.6168 1.67025
rtibia 68.6623
rfoot -12.2873 -10.616
rtoes -13.9182
lfemur -13.2717 14.1015 -36.5888
ltibia 45.8739
lfoot -24.623 3.94865
ltoes 10.2576
117
root -1.43915 15.5754 9.3399 -10.8907 63.6999 -20.3904
lowerback 12.2211 -2.93991 -2.00002
upperback 0.825731 -3.87971 4.0011
thorax -5.5624 -1.7946 6.00656
lowerneck -14.2411 -0.482614 -5.58281
upperneck 17.0051 -0.441407 5.63807
head 7.6025 -0.0103622 2.74017
rclavicle 2.6339e-014 -3.97569e-016
rhumerus -56.9694 16.75 -77.9757
rradius 91.4206
rwrist -14.7478
rhand -11.1666 27.4078
rfingers 7.12502
rthumb 14.86 -2.03925
lclavicle 2.6339e-014 -3.97569e-016
lhumerus -32.2097 -10.4684 97.1604
lradius 115.165
lwrist 28.1759
lhand -26.9188 7.62323
lfingers 7.12502
lthumb -0.341702 37.6027
rfemur -30.0059 0.0228103 0.893098
rtibia 67.4511
rfoot -12.6581 -9.70476
rtoes -16.652
lfemur -11.4911 13.7456 -37.027
ltibia 44.3068
lfoot -24.2345 5.50997
ltoes 5.22808
118
root -1.16105 15.6016 9.51116 -9.6171 63.0365 -18.9866
lowerback 12.3654 -3.09564 -2.71586
upperback 1.02326 -4.16866 4.28213
thorax -5.3269 -1.9282 6.76116
lowerneck -14.8641 -0.125877 -6.04148
upperneck 17.1224 0.26334 5.19636
head 7.70915 0.256768 2.75027
rclavicle 7.5737e-014 -4.69132e-014
rhumerus -56.5685 18.007 -76.9901
rradius 92.2552
rwrist -15.7635
rhand -10.9898 26.9443
rfingers 7.12502
rthumb 15.0303 -2.4901
lclavicle 7.5737e-014 -4.69132e-014
lhumerus -31.5703 -10.2789 97.3252
lradius 116.591
lwrist 30.1539
lhand -27.5536 7.56622
lfingers 7.12502
lthumb -0.954759 37.5438
rfemur -32.2256 -0.345678 0.519722
rtibia 65.6661
rfoot -12.9818 -8.90006
rtoes -17.739
lfemur -9.48536 13.3905 -37.3009
ltibia 42.5784
lfoot -23.2773 7.10041
ltoes -0.290697
119
root -0.862923 15.6173 9.57893 -8.0521 61.8197 -18.4549
lowerback 11.7791 -3.21551 -1.74816
upperback 0.894488 -4.18951 4.38459
thorax -5.19719 -1.96142 6.2821
lowerneck -15.3861 0.220458 -5.96534
upperneck 17.0828 0.881636 4.50272
head 7.7562 0.490753 2.5764
rclavicle 1.15295e-014 -1.19271e-015
rhumerus -55.9777 19.0059 -76.1454
rradius 92.9663
rwrist -16.6743
rhand -11.2463 26.9194
rfingers 7.12502
rthumb 14.7832 -2.53339
lclavicle 1.15295e-014 -1.19271e-015
lhumerus -31.092 -10.8258 97.3498
lradius 117.627
lwrist 31.3381
lhand -27.9793 6.52807
lfingers 7.12502
lthumb -1.36592 36.5034
rfemur -35.815 -1.52873 0.572856
rtibia 63.3554
rfoot -12.8591 -7.15848
rtoes -19.0374
lfemur -9.12814 12.3476 -37.8332
ltibia 40.9841
lfoot -22.1333 7.15938
ltoes 3.20148
120
root -0.543985 15.6779 9.73328 -6.71278 60.6708 -17.0202
lowerback 11.6993 -3.13202 -2.15214
upperback 0.998727 -4.1422 4.28943
thorax -5.02624 -1.93866 6.3908
lowerneck -15.3209 0.585418 -5.50653
upperneck 16.9183 1.37703 3.9498
head 7.67073 0.702353 2.36585
rclavicle -4.95968e-014 3.1408e-014
rhumerus -55.8049 19.5995 -75.9501
rradius 93.6632
rwrist -17.1962
rhand -11.7339 27
rfingers 7.12502
rthumb 14.3134 -2.48661
lclavicle -4.95968e-014 3.1408e-014
lhumerus -31.469 -12.0463 97.0011
lradius 118.393
lwrist 30.7475
lhand -28.356 4.92263
lfingers 7.12502
lthumb -1.72977 34.8954
rfemur -37.6315 -2.13861 0.849015
rtibia 60.7467
rfoot -13.3241 -5.74119
rtoes -19.346
lfemur -7.2198 12.3124 -38.0743
ltibia 39.2235
lfoot -21.2351 6.70519
ltoes 3.56883
121
root -0.215399 15.7532 9.92752 -8.4704 59.2481 -18.2792
lowerback 12.0555 -2.92285 -1.87171
upperback 1.36837 -3.80225 4.62486
thorax -4.87025 -1.7793 6.54896
lowerneck -15.2016 0.808438 -5.15618
upperneck 16.9169 1.65758 3.62087
head 7.64144 0.825815 2.22731
rclavicle -5.1684e-015 1.70955e-014
rhumerus -55.7479 19.9328 -75.8804
rradius 94.2796
rwrist -17.2736
rhand -12.1579 26.9933
rfingers 7.12502
rthumb 13.9049 -2.52183
lclavicle -5.1684e-015 1.70955e-014
lhumerus -32.1295 -13.6439 96.7492
lradius 118.666
lwrist 28.7373
lhand -27.8574 3.5064
lfingers 7.12502
lthumb -1.24823 33.4825
rfemur -38.2804 -1.94624 3.01545
rtibia 57.7346
rfoot -13.5721 -4.63902
rtoes -19.5451
lfemur -4.79614 11.2106 -37.0525
ltibia 37.8328
lfoot -19.5348 7.89145
ltoes -0.640154
122
root 0.108269 15.8086 10.0934 -8.35503 58.1112 -17.985
lowerback 11.9973 -2.72642 -1.89264
upperback 1.54763 -3.54235 4.68952
thorax -4.67521 -1.65772 6.57866
lowerneck -15.1628 0.909879 -4.99358
upperneck 17.0334 1.79329 3.4318
head 7.67033 0.881386 2.1538
rclavicle 4.56211e-014 6.36111e-015
rhumerus -55.6251 20.2362 -75.8023
rradius 94.9034
rwrist -17.102
rhand -12.0272 27.0819
rfingers 7.12502
rthumb 14.0308 -2.42453
lclavicle 4.56211e-014 6.36111e-015
lhumerus -32.9204 -15.4447 96.637
lradius 118.576
lwrist 26.1555
lhand -27.0136 2.42508
lfingers 7.12502
lthumb -0.433194 32.4044
rfemur -39.2651 -2.24008 4.22943
rtibia 54.6748
rfoot -13.465 -2.73678
rtoes -19.6478
lfemur -2.91052 9.32012 -37.2577
ltibia 36.401
lfoot -17.1757 8.60261
ltoes -2.40258
123
root 0.42944 15.8388 10.1991 -8.69463 56.7339 -18.2167
lowerback 12.3973 -2.52058 -0.769562
upperback 1.6584 -3.10625 4.72139
thorax -4.89378 -1.45246 5.92674
lowerneck -14.9637 0.995021 -5.05102
upperneck 16.9207 1.94875 3.25129
head 7.59298 0.934428 2.11541
rclavicle -1.10524e-013 5.4467e-014
rhumerus -55.3967 20.3038 -75.6528
rradius 95.4186
rwrist -16.87
rhand -12.0201 27.3338
rfingers 7.12502
rthumb 14.0376 -2.17212
lclavicle -1.10524e-013 5.4467e-014
lhumerus -33.7287 -17.3484 96.8168
lradius 117.908
lwrist 23.2375
lhand -26.1121 1.60377
lfingers 7.12502
lthumb 0.43743 31.5831
rfemur -40.1965 -2.67474 5.63356
rtibia 51.3894
rfoot -12.4227 -0.0177373
rtoes -17.9033
lfemur -1.50591 7.39176 -37.4613
ltibia 35.5265
lfoot -14.193 8.34438
ltoes -1.35079
124
root 0.769144 15.921 10.393 -8.65581 56.1756 -18.2607
lowerback 11.7575 -2.39209 -1.10657
upperback 1.87534 -2.97726 5.06096
thorax -4.28846 -1.3984 6.41344
lowerneck -14.6319 1.18601 -4.93385
upperneck 16.7069 2.26718 2.72737
head 7.45966 1.04485 1.94857
rclavicle -2.38542e-014 2.74323e-014
rhumerus -54.9684 20.2966 -75.4821
rradius 95.8816
rwrist -16.6253
rhand -11.9904 27.1841
rfingers 7.12502
rthumb 14.0663 -2.31987
lclavicle -2.38542e-014 2.74323e-014
lhumerus -34.5005 -19.2121 97.4146
lradius 116.467
lwrist 20.3267
lhand -24.6617 1.80048
lfingers 7.12502
lthumb 1.83834 31.7723
rfemur -40.3097 -3.23686 7.17447
rtibia 48.3066
rfoot -11.8004 0.971908
rtoes -20.9251
lfemur -0.0439861 5.4922 -37.2379
ltibia 34.9993
lfoot -10.4143 5.0194
ltoes 0.913675
